<svg xmlns="http://www.w3.org/2000/svg" viewBox="0 0 640 384" fill="none">
  <!-- Light neutral background -->
  <rect width="640" height="384" fill="#f0f4f8"/>
  <circle cx="490" cy="300" r="155" fill="#e2eaf5" opacity="0.45"/>
  <!-- Shadow doc (back) -->
  <rect x="238" y="58" width="210" height="268" rx="12" fill="#c5cdd8" opacity="0.4"/>
  <!-- Middle doc -->
  <rect x="228" y="50" width="210" height="268" rx="12" fill="#e8edf5"/>
  <!-- Main document -->
  <rect x="218" y="42" width="210" height="268" rx="12" fill="#ffffff" stroke="#dde2ea" stroke-width="1.5"/>
  <!-- Document header band -->
  <rect x="218" y="42" width="210" height="46" rx="12" fill="#1a365d"/>
  <rect x="218" y="70" width="210" height="18" fill="#1a365d"/>
  <rect x="234" y="53" width="78" height="7" rx="3" fill="#fff" opacity="0.45"/>
  <rect x="234" y="66" width="122" height="6" rx="3" fill="#b98e5a" opacity="0.6"/>
  <!-- Body lines -->
  <rect x="234" y="100" width="168" height="6" rx="3" fill="#c5cdd8"/>
  <rect x="234" y="113" width="142" height="6" rx="3" fill="#dde2ea"/>
  <rect x="234" y="126" width="158" height="6" rx="3" fill="#dde2ea"/>
  <rect x="234" y="139" width="132" height="6" rx="3" fill="#dde2ea"/>
  <rect x="234" y="152" width="148" height="6" rx="3" fill="#dde2ea"/>
  <rect x="234" y="170" width="168" height="1.5" fill="#e2e8f0"/>
  <rect x="234" y="180" width="162" height="6" rx="3" fill="#dde2ea"/>
  <rect x="234" y="193" width="148" height="6" rx="3" fill="#dde2ea"/>
  <rect x="234" y="206" width="158" height="6" rx="3" fill="#dde2ea"/>
  <rect x="234" y="219" width="124" height="6" rx="3" fill="#dde2ea"/>
  <!-- Signature area -->
  <rect x="234" y="256" width="168" height="1.5" fill="#c5cdd8"/>
  <rect x="234" y="266" width="68" height="5" rx="2" fill="#dde2ea"/>
  <rect x="333" y="266" width="55" height="5" rx="2" fill="#dde2ea"/>
  <!-- NOTARY SEAL (overlapping bottom-right of doc) -->
  <circle cx="388" cy="264" r="54" fill="#fff7ec"/>
  <circle cx="388" cy="264" r="50" fill="none" stroke="#b98e5a" stroke-width="3.5" stroke-dasharray="5 4"/>
  <circle cx="388" cy="264" r="40" fill="none" stroke="#b98e5a" stroke-width="2"/>
  <circle cx="388" cy="264" r="30" fill="#b98e5a" opacity="0.1"/>
  <text x="388" y="271" font-size="24" text-anchor="middle" fill="#b98e5a" font-family="serif" font-weight="bold">&#10022;</text>
  <!-- OFFICIAL arc label (simplified) -->
  <rect x="355" y="306" width="66" height="5" rx="2" fill="#b98e5a" opacity="0.45"/>
  <!-- APPROVAL CHECK BADGE (top-right) -->
  <circle cx="404" cy="66" r="24" fill="#059669"/>
  <path d="M394 66 L401 73 L416 58" stroke="#fff" stroke-width="3.5" stroke-linecap="round" stroke-linejoin="round"/>
  <!-- Shadow -->
  <ellipse cx="326" cy="318" rx="118" ry="10" fill="#1a365d" opacity="0.09"/>
</svg>
