<?xml version="1.0" encoding="UTF-8"?>
<!DOCTYPE svg PUBLIC "-//W3C//DTD SVG 1.1//EN" "http://www.w3.org/Graphics/SVG/1.1/DTD/svg11.dtd">
<!-- Creator: CorelDRAW 2019 (64-Bit) -->
<svg xmlns="http://www.w3.org/2000/svg" xml:space="preserve" width="200mm" height="44.1377mm" version="1.1" style="shape-rendering:geometricPrecision; text-rendering:geometricPrecision; image-rendering:optimizeQuality; fill-rule:evenodd; clip-rule:evenodd"
viewBox="0 0 200.3287 44.2102"
 xmlns:xlink="http://www.w3.org/1999/xlink"
 xmlns:xodm="http://www.corel.com/coreldraw/odm/2003">
 <defs>
  <style type="text/css">
   <![CDATA[
    .fil1 {fill:#B9001B}
    .fil0 {fill:#F1BD00}
   ]]>
  </style>
 </defs>
 <g id="Layer_x0020_1">
  <metadata id="CorelCorpID_0Corel-Layer"/>
  <g id="_746118160">
   <polygon class="fil0" points="200.328,0 200.328,44.2102 -0,44.2102 -0,0 "/>
   <path class="fil1" d="M35.2289 7.9392l-6.4001 8.6959c0,0 33.1805,0 34.8822,0 1.7633,0 1.7404,0.67 0.8784,1.8373 -0.8748,1.1855 -2.3397,3.2464 -3.2313,4.4498 -0.4524,0.6112 -1.2703,1.724 1.4403,1.724 2.866,0 14.2646,0 14.2646,0 0,0 2.2994,-3.1286 4.2266,-5.7443 2.6221,-3.5581 0.2272,-10.9627 -9.1463,-10.9627 -8.3899,0 -36.9144,0 -36.9144,0z"/>
   <path class="fil1" d="M26.239 36.2685l12.8555 -17.4677c0,0 14.2513,0.0001 15.9534,0.0001 1.7628,0 1.7399,0.67 0.8784,1.8376 -0.8753,1.1855 -2.3643,3.2245 -3.2559,4.4285 -0.4525,0.6108 -1.2703,1.7256 1.44,1.7256 2.8661,0 21.3717,0 21.3717,0 -1.7774,2.4349 -7.5425,9.4759 -17.895,9.4759 -8.3901,0 -31.348,0 -31.348,0z"/>
   <path class="fil1" d="M99.8629 26.7905l-6.9709 9.4779 -18.3897 0c0,0 6.9675,-9.4759 6.9737,-9.4759l18.3869 -0.002z"/>
   <polygon class="fil1" points="128.0354,24.6462 83.0556,24.6462 95.3556,7.9392 113.7396,7.9392 106.6898,17.5193 114.8962,17.5193 121.9488,7.9392 140.3311,7.9392 "/>
   <path class="fil1" d="M126.4562 26.7925l-6.9745 9.4759 -18.383 0c0,0 6.9679,-9.4759 6.9742,-9.4759l18.3833 0z"/>
   <polygon class="fil1" points="-0,30.5291 27.0905,30.5291 25.6105,32.5427 -0,32.5427 "/>
   <polygon class="fil1" points="-0,26.7925 29.8429,26.7925 28.3602,28.803 -0,28.803 "/>
   <polygon class="fil1" points="-0,34.268 24.3397,34.268 22.8668,36.2685 -0,36.2685 "/>
   <polygon class="fil1" points="200.3287,32.5427 173.3418,32.5427 174.8227,30.5294 200.3287,30.5294 "/>
   <polygon class="fil1" points="200.3287,36.2685 170.5983,36.2706 172.0712,34.268 200.3287,34.268 "/>
   <polygon class="fil1" points="177.5715,26.7925 200.3287,26.7925 200.3287,28.8041 176.0928,28.8054 "/>
   <path class="fil1" d="M165.7914 7.9392l-12.2983 16.707 -19.4796 0c0,0 12.3005,-16.707 12.3067,-16.707l19.4712 0z"/>
   <path class="fil1" d="M132.4365 26.7925c0,0 -1.3439,1.8365 -1.9964,2.7193 -2.3097,3.1206 -0.2679,6.7567 7.2678,6.7567 8.7029,0 29.5239,0 29.5239,0l6.974 -9.4759 -41.7694 0z"/>
  </g>
 </g>
</svg>
