<svg width="320" height="320" viewBox="0 0 320 320" fill="none" xmlns="http://www.w3.org/2000/svg">
<rect width="320" height="320" rx="23" fill="black"/>
<path d="M201.663 73.5762L203.479 75.1318V56.9844L299.9 151.278V168.721L203.479 263.015V244.868L201.663 246.424L159.5 282.551L117.337 246.424L115.521 244.868V263.015L19.0996 168.721V151.278L115.521 56.9844V75.1318L117.337 73.5762L159.5 37.4482L201.663 73.5762Z" fill="white" stroke="white" stroke-width="2.2"/>
<path d="M160.266 62.1758L264.766 159.176L265.653 160L264.766 160.824L160.266 257.824L159.496 258.538L158.73 257.821L55.2305 160.821L54.3545 160L55.2305 159.179L158.73 62.1787L159.496 61.4619L160.266 62.1758Z" fill="black" stroke="white" stroke-width="2.25"/>
<path d="M141.5 97L159.5 81L177 97.5L177.5 221L159.5 239L141.5 221V97Z" fill="#B98E5A"/>
<path d="M205 196.325L204.633 196.025L187 181.625V140.197L230 177.655V206.21L205 233.432V196.325Z" fill="white" stroke="white" stroke-width="2"/>
<path d="M114 124.675L114.367 124.975L132 139.375L132 180.803L89 143.345L89 114.79L114 87.5684L114 124.675Z" fill="white" stroke="white" stroke-width="2"/>
</svg>
